<svg width="512" height="512" viewBox="0 0 512 512" fill="none" xmlns="http://www.w3.org/2000/svg">
<circle cx="256" cy="256" r="254" stroke="white" stroke-width="4"/>
<path d="M285.394 357.65L268.62 365.294M348.58 329.608L331.806 337.252M317.129 343.94L300.355 351.585M253.943 371.983L237.17 379.627M222.492 386.316L205.718 393.96M188.198 84.9016L302.866 336.517M382.563 298.821L369.758 312.081M431.074 249.572L418.269 262.832M407.065 274.435L394.26 287.695M358.554 323.683L345.749 336.943M334.544 348.546L321.739 361.806M230.544 42.8199L384.384 380.391L329.87 405.235C329.87 405.235 302.956 387.283 284.285 396.889C266.443 406.069 263.823 435.334 263.823 435.334L220.84 454.923L67 117.351L109.983 97.763C109.983 97.763 133.367 110.202 150.511 103.349C168.592 96.1211 176.03 67.6638 176.03 67.6638L230.544 42.8199ZM257.433 140.715L248.176 149.198L253.382 160.623L242.454 154.44L233.197 162.923L235.701 150.619L224.773 144.436L237.248 143.015L239.751 130.711L244.958 142.136L257.433 140.715ZM282.277 195.23L273.02 203.713L278.226 215.138L267.298 208.955L258.041 217.438L260.545 205.134L249.617 198.951L262.092 197.53L264.595 185.226L269.802 196.652L282.277 195.23ZM232.588 86.2023L223.331 94.6848L228.538 106.11L217.61 99.9273L208.353 108.41L210.856 96.1061L199.929 89.9234L212.403 88.5021L214.907 76.1985L220.113 87.6237L232.588 86.2023ZM307.121 249.745L297.864 258.227L303.07 269.653L292.143 263.47L282.886 271.952L285.389 259.649L274.461 253.466L286.936 252.045L289.439 239.741L294.646 251.166L307.121 249.745ZM331.964 304.26L322.707 312.743L327.914 324.168L316.986 317.985L307.729 326.468L310.232 314.164L299.305 307.981L311.779 306.56L314.283 294.256L319.489 305.682L331.964 304.26ZM216.144 26L483 283.7L441.384 326.795C441.384 326.795 409.763 319.955 395.912 335.736C382.676 350.817 390.964 379.006 390.964 379.006L358.151 412.984L91.2955 155.285L124.108 121.306C124.108 121.306 150.424 124.309 163.864 111.649C178.037 98.298 174.528 69.0949 174.528 69.0949L216.144 26Z" stroke="white" stroke-width="4"/>
</svg>
