<?xml version="1.0" encoding="UTF-8"?>
<svg width="1024px" height="1024px" viewBox="0 0 1024 1024" version="1.1" xmlns="http://www.w3.org/2000/svg" xmlns:xlink="http://www.w3.org/1999/xlink">
    <title>Group</title>
    <defs>
        <path d="M0,390.845291 L0,257.339126 L0,257.339126 C38.5335166,237.305187 57.8002748,217.333027 57.8002748,197.422646 C57.8002748,177.512264 38.5335166,157.827473 0,138.368274 L0,4 C-2.705415e-16,1.790861 1.790861,4.05812251e-16 4,0 L656.435845,0 C658.644984,-4.05812251e-16 660.435845,1.790861 660.435845,4 L660.435845,137.506166 L660.435845,137.506166 C621.902328,157.540104 602.63557,177.512264 602.63557,197.422646 C602.63557,217.333027 621.902328,237.017818 660.435845,256.477018 L660.435845,390.845291 C660.435845,393.05443 658.644984,394.845291 656.435845,394.845291 L4,394.845291 C1.790861,394.845291 3.12202057e-14,393.05443 0,390.845291 Z" id="path-1"></path>
    </defs>
    <g id="Page-1" stroke="none" stroke-width="1" fill="none" fill-rule="evenodd">
        <g id="Artboard" transform="translate(-431.000000, -215.000000)">
            <g id="Group" transform="translate(431.000000, 215.000000)">
                <g id="Blank-Tix" transform="translate(55.000000, 127.000000)">
                    <g id="Ticket-Blank" transform="translate(326.944555, 413.786451) rotate(63.000000) translate(-326.944555, -413.786451) translate(-3.555445, 216.286451)" stroke="#FFFFFF">
                        <path d="M-2.27373675e-13,390.845291 L-2.27373675e-13,257.339126 L-2.27373675e-13,257.339126 C38.5335166,237.305187 57.8002748,217.333027 57.8002748,197.422646 C57.8002748,177.512264 38.5335166,157.827473 -2.27373675e-13,138.368274 L-2.27373675e-13,4 C-2.27644217e-13,1.790861 1.790861,3.41466325e-13 4,3.41060513e-13 L656.435845,3.41060513e-13 C658.644984,4.02998118e-13 660.435845,1.790861 660.435845,4 L660.435845,137.506166 L660.435845,137.506166 C621.902328,157.540104 602.63557,177.512264 602.63557,197.422646 C602.63557,217.333027 621.902328,237.017818 660.435845,256.477018 L660.435845,390.845291 C660.435845,393.05443 658.644984,394.845291 656.435845,394.845291 L4,394.845291 C1.790861,394.845291 -2.27547223e-13,393.05443 -2.27373675e-13,390.845291 Z" id="Path" stroke-width="10" fill-opacity="0.834243881" fill="#E02020"></path>
                        <line x1="545.333775" y1="26.2942825" x2="545.333775" y2="370.275224" id="Dashed-Line" stroke-width="4" stroke-linecap="square" stroke-dasharray="37,23"></line>
                    </g>
                    <g id="Ticket-Blank-Right" transform="translate(563.500000, 343.500000) rotate(32.000000) translate(-563.500000, -343.500000) translate(233.000000, 146.000000)">
                        <mask id="mask-2" fill="white">
                            <use xlink:href="#path-1"></use>
                        </mask>
                        <use id="Path" stroke="#FFFFFF" stroke-width="10" fill-opacity="0.100360577" fill="#FFFFFF" xlink:href="#path-1"></use>
                        <line x1="545.333775" y1="26.2942825" x2="545.333775" y2="370.275224" id="Dashed-Line" stroke="#FFFFFF" stroke-width="4" stroke-linecap="square" stroke-dasharray="37,23" mask="url(#mask-2)"></line>
                    </g>
                </g>
            </g>
        </g>
    </g>
</svg>