<svg width="57" height="57" viewBox="0 0 57 57" fill="none" xmlns="http://www.w3.org/2000/svg">
<path d="M14.1421 42.4264C12.58 40.8643 12.58 38.3316 14.1421 36.7696L36.7696 14.1421C38.3316 12.58 40.8643 12.58 42.4264 14.1421C43.9885 15.7042 43.9885 18.2369 42.4264 19.799L19.799 42.4264C18.2369 43.9885 15.7042 43.9885 14.1421 42.4264Z" fill="#19F571" fill-opacity="0.81"/>
<path d="M42.4264 42.4264C40.8643 43.9885 38.3316 43.9885 36.7696 42.4264L14.1421 19.799C12.58 18.2369 12.58 15.7042 14.1421 14.1421C15.7042 12.58 18.2369 12.58 19.799 14.1421L42.4264 36.7696C43.9885 38.3316 43.9885 40.8643 42.4264 42.4264Z" fill="#19F571" fill-opacity="0.81"/>
</svg>
